<mxfile host="app.diagrams.net" agent="Mozilla/5.0 (Windows NT 10.0; Win64; x64; rv:128.0) Gecko/20100101 Firefox/128.0" version="26.1.0">
  <diagram name="Page-1" id="ymQOdVSETQyF0zPwYR8d">
    <mxGraphModel dx="1434" dy="746" grid="1" gridSize="10" guides="1" tooltips="1" connect="1" arrows="1" fold="1" page="1" pageScale="1" pageWidth="850" pageHeight="1100" math="0" shadow="0">
      <root>
        <mxCell id="0" />
        <mxCell id="1" parent="0" />
        <mxCell id="O4HjS6NmUL1HwcS0dyW2-3" value="User" style="swimlane;fontStyle=0;childLayout=stackLayout;horizontal=1;startSize=26;horizontalStack=0;resizeParent=1;resizeParentMax=0;resizeLast=0;collapsible=1;marginBottom=0;align=center;fontSize=14;" parent="1" vertex="1">
          <mxGeometry x="582" y="80" width="115" height="236" as="geometry" />
        </mxCell>
        <mxCell id="O4HjS6NmUL1HwcS0dyW2-4" value="username" style="text;strokeColor=none;fillColor=none;spacingLeft=4;spacingRight=4;overflow=hidden;rotatable=0;points=[[0,0.5],[1,0.5]];portConstraint=eastwest;fontSize=12;whiteSpace=wrap;html=1;" parent="O4HjS6NmUL1HwcS0dyW2-3" vertex="1">
          <mxGeometry y="26" width="115" height="30" as="geometry" />
        </mxCell>
        <mxCell id="O4HjS6NmUL1HwcS0dyW2-5" value="&lt;div&gt;userIconId&lt;/div&gt;" style="text;strokeColor=none;fillColor=none;spacingLeft=4;spacingRight=4;overflow=hidden;rotatable=0;points=[[0,0.5],[1,0.5]];portConstraint=eastwest;fontSize=12;whiteSpace=wrap;html=1;" parent="O4HjS6NmUL1HwcS0dyW2-3" vertex="1">
          <mxGeometry y="56" width="115" height="30" as="geometry" />
        </mxCell>
        <mxCell id="O4HjS6NmUL1HwcS0dyW2-6" value="&lt;div&gt;userDescription&lt;/div&gt;" style="text;strokeColor=none;fillColor=none;spacingLeft=4;spacingRight=4;overflow=hidden;rotatable=0;points=[[0,0.5],[1,0.5]];portConstraint=eastwest;fontSize=12;whiteSpace=wrap;html=1;" parent="O4HjS6NmUL1HwcS0dyW2-3" vertex="1">
          <mxGeometry y="86" width="115" height="30" as="geometry" />
        </mxCell>
        <mxCell id="O4HjS6NmUL1HwcS0dyW2-61" value="attribIds" style="text;strokeColor=none;fillColor=none;spacingLeft=4;spacingRight=4;overflow=hidden;rotatable=0;points=[[0,0.5],[1,0.5]];portConstraint=eastwest;fontSize=12;whiteSpace=wrap;html=1;" parent="O4HjS6NmUL1HwcS0dyW2-3" vertex="1">
          <mxGeometry y="116" width="115" height="30" as="geometry" />
        </mxCell>
        <mxCell id="O4HjS6NmUL1HwcS0dyW2-23" value="friends" style="text;strokeColor=none;fillColor=none;spacingLeft=4;spacingRight=4;overflow=hidden;rotatable=0;points=[[0,0.5],[1,0.5]];portConstraint=eastwest;fontSize=12;whiteSpace=wrap;html=1;" parent="O4HjS6NmUL1HwcS0dyW2-3" vertex="1">
          <mxGeometry y="146" width="115" height="30" as="geometry" />
        </mxCell>
        <mxCell id="O4HjS6NmUL1HwcS0dyW2-25" value="&lt;div&gt;recentSearches&lt;/div&gt;&lt;div&gt;&lt;br&gt;&lt;/div&gt;" style="text;strokeColor=none;fillColor=none;spacingLeft=4;spacingRight=4;overflow=hidden;rotatable=0;points=[[0,0.5],[1,0.5]];portConstraint=eastwest;fontSize=12;whiteSpace=wrap;html=1;" parent="O4HjS6NmUL1HwcS0dyW2-3" vertex="1">
          <mxGeometry y="176" width="115" height="30" as="geometry" />
        </mxCell>
        <mxCell id="O4HjS6NmUL1HwcS0dyW2-56" value="&lt;div&gt;keywordsId&lt;/div&gt;" style="text;strokeColor=none;fillColor=none;spacingLeft=4;spacingRight=4;overflow=hidden;rotatable=0;points=[[0,0.5],[1,0.5]];portConstraint=eastwest;fontSize=12;whiteSpace=wrap;html=1;" parent="O4HjS6NmUL1HwcS0dyW2-3" vertex="1">
          <mxGeometry y="206" width="115" height="30" as="geometry" />
        </mxCell>
        <mxCell id="O4HjS6NmUL1HwcS0dyW2-50" value="" style="endArrow=none;html=1;rounded=0;exitX=1.003;exitY=0.426;exitDx=0;exitDy=0;exitPerimeter=0;dashed=1;" parent="1" source="O4HjS6NmUL1HwcS0dyW2-23" edge="1">
          <mxGeometry width="50" height="50" relative="1" as="geometry">
            <mxPoint x="717" y="250" as="sourcePoint" />
            <mxPoint x="547" y="240" as="targetPoint" />
            <Array as="points">
              <mxPoint x="737" y="239" />
              <mxPoint x="737" y="370" />
              <mxPoint x="637" y="370" />
              <mxPoint x="547" y="370" />
            </Array>
          </mxGeometry>
        </mxCell>
        <mxCell id="O4HjS6NmUL1HwcS0dyW2-51" value="" style="edgeStyle=entityRelationEdgeStyle;fontSize=12;html=1;endArrow=ERzeroToMany;endFill=1;rounded=0;entryX=0;entryY=0.5;entryDx=0;entryDy=0;dashed=1;" parent="1" target="O4HjS6NmUL1HwcS0dyW2-23" edge="1">
          <mxGeometry width="100" height="100" relative="1" as="geometry">
            <mxPoint x="547" y="241" as="sourcePoint" />
            <mxPoint x="317" y="240" as="targetPoint" />
          </mxGeometry>
        </mxCell>
        <mxCell id="O4HjS6NmUL1HwcS0dyW2-65" value="0...m rekurze" style="text;html=1;align=center;verticalAlign=middle;whiteSpace=wrap;rounded=0;" parent="1" vertex="1">
          <mxGeometry x="547" y="340" width="140" height="30" as="geometry" />
        </mxCell>
        <mxCell id="O4HjS6NmUL1HwcS0dyW2-94" value="" style="edgeStyle=entityRelationEdgeStyle;fontSize=12;html=1;endArrow=ERmany;startArrow=ERmany;rounded=0;exitX=1;exitY=0.5;exitDx=0;exitDy=0;entryX=0;entryY=0.5;entryDx=0;entryDy=0;" parent="1" source="O4HjS6NmUL1HwcS0dyW2-56" target="O4HjS6NmUL1HwcS0dyW2-55" edge="1">
          <mxGeometry width="100" height="100" relative="1" as="geometry">
            <mxPoint x="807" y="460" as="sourcePoint" />
            <mxPoint x="907" y="360" as="targetPoint" />
          </mxGeometry>
        </mxCell>
        <mxCell id="O4HjS6NmUL1HwcS0dyW2-103" value="" style="swimlane;startSize=0;" parent="1" vertex="1">
          <mxGeometry x="50" y="37" width="1270" height="576" as="geometry" />
        </mxCell>
        <mxCell id="O4HjS6NmUL1HwcS0dyW2-98" value="m...n" style="text;html=1;align=center;verticalAlign=middle;whiteSpace=wrap;rounded=0;" parent="O4HjS6NmUL1HwcS0dyW2-103" vertex="1">
          <mxGeometry x="677" y="173" width="60" height="30" as="geometry" />
        </mxCell>
        <mxCell id="O4HjS6NmUL1HwcS0dyW2-99" value="&lt;b&gt;&lt;u&gt;&lt;font style=&quot;font-size: 24px;&quot;&gt;Uživatelé&lt;/font&gt;&lt;/u&gt;&lt;/b&gt;" style="text;strokeColor=none;fillColor=none;spacingLeft=4;spacingRight=4;overflow=hidden;rotatable=0;points=[[0,0.5],[1,0.5]];portConstraint=eastwest;fontSize=12;whiteSpace=wrap;html=1;" parent="O4HjS6NmUL1HwcS0dyW2-103" vertex="1">
          <mxGeometry x="327" y="270" width="140" height="40" as="geometry" />
        </mxCell>
        <mxCell id="O4HjS6NmUL1HwcS0dyW2-100" value="&lt;font style=&quot;font-size: 24px;&quot;&gt;&lt;b&gt;&lt;u&gt;Crawler&lt;br&gt;&lt;/u&gt;&lt;/b&gt;&lt;/font&gt;" style="text;strokeColor=none;fillColor=none;spacingLeft=4;spacingRight=4;overflow=hidden;rotatable=0;points=[[0,0.5],[1,0.5]];portConstraint=eastwest;fontSize=12;whiteSpace=wrap;html=1;" parent="O4HjS6NmUL1HwcS0dyW2-103" vertex="1">
          <mxGeometry x="75" y="377" width="335" height="40" as="geometry" />
        </mxCell>
        <mxCell id="O4HjS6NmUL1HwcS0dyW2-102" value="" style="swimlane;startSize=0;" parent="O4HjS6NmUL1HwcS0dyW2-103" vertex="1">
          <mxGeometry x="40" y="373" width="440" height="174" as="geometry" />
        </mxCell>
        <mxCell id="O4HjS6NmUL1HwcS0dyW2-104" value="Doména" style="swimlane;fontStyle=0;childLayout=stackLayout;horizontal=1;startSize=26;horizontalStack=0;resizeParent=1;resizeParentMax=0;resizeLast=0;collapsible=1;marginBottom=0;align=center;fontSize=14;" parent="O4HjS6NmUL1HwcS0dyW2-102" vertex="1">
          <mxGeometry x="35" y="74" width="160" height="56" as="geometry" />
        </mxCell>
        <mxCell id="O4HjS6NmUL1HwcS0dyW2-108" value="Stránka" style="swimlane;fontStyle=0;childLayout=stackLayout;horizontal=1;startSize=26;horizontalStack=0;resizeParent=1;resizeParentMax=0;resizeLast=0;collapsible=1;marginBottom=0;align=center;fontSize=14;" parent="O4HjS6NmUL1HwcS0dyW2-102" vertex="1">
          <mxGeometry x="260" y="74" width="160" height="56" as="geometry" />
        </mxCell>
        <mxCell id="O4HjS6NmUL1HwcS0dyW2-109" value="" style="edgeStyle=entityRelationEdgeStyle;fontSize=12;html=1;endArrow=ERoneToMany;rounded=0;entryX=0;entryY=0.75;entryDx=0;entryDy=0;exitX=1;exitY=0.75;exitDx=0;exitDy=0;" parent="O4HjS6NmUL1HwcS0dyW2-102" source="O4HjS6NmUL1HwcS0dyW2-104" target="O4HjS6NmUL1HwcS0dyW2-108" edge="1">
          <mxGeometry width="100" height="100" relative="1" as="geometry">
            <mxPoint x="-70" y="234" as="sourcePoint" />
            <mxPoint x="30" y="134" as="targetPoint" />
          </mxGeometry>
        </mxCell>
        <mxCell id="O4HjS6NmUL1HwcS0dyW2-118" value="1...m" style="text;html=1;align=center;verticalAlign=middle;whiteSpace=wrap;rounded=0;" parent="O4HjS6NmUL1HwcS0dyW2-102" vertex="1">
          <mxGeometry x="190" y="87" width="80" height="30" as="geometry" />
        </mxCell>
        <mxCell id="wPCUF2pOBAqWJ-GTT4To-5" value="Attributes" style="swimlane;fontStyle=0;childLayout=stackLayout;horizontal=1;startSize=30;horizontalStack=0;resizeParent=1;resizeParentMax=0;resizeLast=0;collapsible=1;marginBottom=0;whiteSpace=wrap;html=1;" vertex="1" parent="O4HjS6NmUL1HwcS0dyW2-103">
          <mxGeometry x="297" y="150" width="140" height="120" as="geometry" />
        </mxCell>
        <mxCell id="wPCUF2pOBAqWJ-GTT4To-6" value="AttributeName" style="text;strokeColor=none;fillColor=none;align=left;verticalAlign=middle;spacingLeft=4;spacingRight=4;overflow=hidden;points=[[0,0.5],[1,0.5]];portConstraint=eastwest;rotatable=0;whiteSpace=wrap;html=1;" vertex="1" parent="wPCUF2pOBAqWJ-GTT4To-5">
          <mxGeometry y="30" width="140" height="30" as="geometry" />
        </mxCell>
        <mxCell id="wPCUF2pOBAqWJ-GTT4To-7" value="AttributeUsers" style="text;strokeColor=none;fillColor=none;align=left;verticalAlign=middle;spacingLeft=4;spacingRight=4;overflow=hidden;points=[[0,0.5],[1,0.5]];portConstraint=eastwest;rotatable=0;whiteSpace=wrap;html=1;" vertex="1" parent="wPCUF2pOBAqWJ-GTT4To-5">
          <mxGeometry y="60" width="140" height="30" as="geometry" />
        </mxCell>
        <mxCell id="wPCUF2pOBAqWJ-GTT4To-28" value="AttributeValues" style="text;strokeColor=none;fillColor=none;align=left;verticalAlign=middle;spacingLeft=4;spacingRight=4;overflow=hidden;points=[[0,0.5],[1,0.5]];portConstraint=eastwest;rotatable=0;whiteSpace=wrap;html=1;" vertex="1" parent="wPCUF2pOBAqWJ-GTT4To-5">
          <mxGeometry y="90" width="140" height="30" as="geometry" />
        </mxCell>
        <mxCell id="wPCUF2pOBAqWJ-GTT4To-13" value="m...1" style="text;html=1;align=center;verticalAlign=middle;whiteSpace=wrap;rounded=0;" vertex="1" parent="O4HjS6NmUL1HwcS0dyW2-103">
          <mxGeometry x="460" y="139" width="60" height="30" as="geometry" />
        </mxCell>
        <mxCell id="wPCUF2pOBAqWJ-GTT4To-15" value="AttributeAllowedValues" style="swimlane;fontStyle=0;childLayout=stackLayout;horizontal=1;startSize=30;horizontalStack=0;resizeParent=1;resizeParentMax=0;resizeLast=0;collapsible=1;marginBottom=0;whiteSpace=wrap;html=1;" vertex="1" parent="O4HjS6NmUL1HwcS0dyW2-103">
          <mxGeometry x="97" y="210" width="140" height="60" as="geometry" />
        </mxCell>
        <mxCell id="wPCUF2pOBAqWJ-GTT4To-16" value="AttributeValues" style="text;strokeColor=none;fillColor=none;align=left;verticalAlign=middle;spacingLeft=4;spacingRight=4;overflow=hidden;points=[[0,0.5],[1,0.5]];portConstraint=eastwest;rotatable=0;whiteSpace=wrap;html=1;" vertex="1" parent="wPCUF2pOBAqWJ-GTT4To-15">
          <mxGeometry y="30" width="140" height="30" as="geometry" />
        </mxCell>
        <mxCell id="wPCUF2pOBAqWJ-GTT4To-20" value="m...0" style="text;html=1;align=center;verticalAlign=middle;whiteSpace=wrap;rounded=0;" vertex="1" parent="O4HjS6NmUL1HwcS0dyW2-103">
          <mxGeometry x="237" y="225" width="60" height="30" as="geometry" />
        </mxCell>
        <mxCell id="wPCUF2pOBAqWJ-GTT4To-24" value="" style="edgeStyle=entityRelationEdgeStyle;fontSize=12;html=1;endArrow=ERmany;rounded=0;entryX=1;entryY=0.75;entryDx=0;entryDy=0;exitX=0;exitY=0.5;exitDx=0;exitDy=0;" edge="1" parent="O4HjS6NmUL1HwcS0dyW2-103" source="wPCUF2pOBAqWJ-GTT4To-28" target="wPCUF2pOBAqWJ-GTT4To-15">
          <mxGeometry width="100" height="100" relative="1" as="geometry">
            <mxPoint x="116" y="285" as="sourcePoint" />
            <mxPoint x="67" y="263" as="targetPoint" />
          </mxGeometry>
        </mxCell>
        <mxCell id="wPCUF2pOBAqWJ-GTT4To-27" value="&lt;div&gt;Kažý uživatel má seznam attribut.&lt;/div&gt;&lt;div&gt;Seznam attribut uživatele odkazuje na globální seznam attribut. &lt;br&gt;&lt;/div&gt;&lt;div&gt;&lt;br&gt;&lt;/div&gt;&lt;div&gt;Každá attributa může (ale nemusí) mít seznam povolených attribut.&lt;br&gt;&lt;/div&gt;" style="text;html=1;align=center;verticalAlign=middle;whiteSpace=wrap;rounded=0;" vertex="1" parent="O4HjS6NmUL1HwcS0dyW2-103">
          <mxGeometry x="197" y="33" width="290" height="97" as="geometry" />
        </mxCell>
        <mxCell id="O4HjS6NmUL1HwcS0dyW2-54" value="KeywordList" style="swimlane;fontStyle=0;childLayout=stackLayout;horizontal=1;startSize=26;horizontalStack=0;resizeParent=1;resizeParentMax=0;resizeLast=0;collapsible=1;marginBottom=0;align=center;fontSize=14;" parent="1" vertex="1">
          <mxGeometry x="777" y="224" width="160" height="146" as="geometry" />
        </mxCell>
        <mxCell id="O4HjS6NmUL1HwcS0dyW2-55" value="keyword, user ids" style="text;strokeColor=none;fillColor=none;spacingLeft=4;spacingRight=4;overflow=hidden;rotatable=0;points=[[0,0.5],[1,0.5]];portConstraint=eastwest;fontSize=12;whiteSpace=wrap;html=1;" parent="O4HjS6NmUL1HwcS0dyW2-54" vertex="1">
          <mxGeometry y="26" width="160" height="30" as="geometry" />
        </mxCell>
        <mxCell id="O4HjS6NmUL1HwcS0dyW2-95" value="keyword, user ids" style="text;strokeColor=none;fillColor=none;spacingLeft=4;spacingRight=4;overflow=hidden;rotatable=0;points=[[0,0.5],[1,0.5]];portConstraint=eastwest;fontSize=12;whiteSpace=wrap;html=1;" parent="O4HjS6NmUL1HwcS0dyW2-54" vertex="1">
          <mxGeometry y="56" width="160" height="30" as="geometry" />
        </mxCell>
        <mxCell id="O4HjS6NmUL1HwcS0dyW2-96" value="..." style="text;strokeColor=none;fillColor=none;spacingLeft=4;spacingRight=4;overflow=hidden;rotatable=0;points=[[0,0.5],[1,0.5]];portConstraint=eastwest;fontSize=12;whiteSpace=wrap;html=1;" parent="O4HjS6NmUL1HwcS0dyW2-54" vertex="1">
          <mxGeometry y="86" width="160" height="30" as="geometry" />
        </mxCell>
        <mxCell id="O4HjS6NmUL1HwcS0dyW2-97" value="keyword, user ids" style="text;strokeColor=none;fillColor=none;spacingLeft=4;spacingRight=4;overflow=hidden;rotatable=0;points=[[0,0.5],[1,0.5]];portConstraint=eastwest;fontSize=12;whiteSpace=wrap;html=1;" parent="O4HjS6NmUL1HwcS0dyW2-54" vertex="1">
          <mxGeometry y="116" width="160" height="30" as="geometry" />
        </mxCell>
        <mxCell id="wPCUF2pOBAqWJ-GTT4To-26" value="" style="edgeStyle=entityRelationEdgeStyle;fontSize=12;html=1;endArrow=ERmany;rounded=0;exitX=0;exitY=0.5;exitDx=0;exitDy=0;entryX=1;entryY=0.5;entryDx=0;entryDy=0;" edge="1" parent="1" source="O4HjS6NmUL1HwcS0dyW2-61" target="wPCUF2pOBAqWJ-GTT4To-7">
          <mxGeometry width="100" height="100" relative="1" as="geometry">
            <mxPoint x="377" y="262" as="sourcePoint" />
            <mxPoint x="437" y="350" as="targetPoint" />
            <Array as="points">
              <mxPoint x="577" y="210" />
            </Array>
          </mxGeometry>
        </mxCell>
      </root>
    </mxGraphModel>
  </diagram>
</mxfile>
